<?xml version="1.0" encoding="utf-8"?>
<svg width="371px" height="153px" viewBox="0 0 371 153" version="1.1" xmlns:xlink="http://www.w3.org/1999/xlink" xmlns="http://www.w3.org/2000/svg">
  <g id="index-logo">
    <path d="M120.86 11.43C128 9 128.59 0 121.51 0C119.56 0 117.23 1.37 115.63 4.17L106 20.73C105.603 21.4355 105.144 22.1047 104.63 22.73C102.17 19.34 102.89 14.28 106.34 12.06L105 10.27C97.54 15.02 99.73 28.75 112.18 28.75C122.78 28.74 127.7 16 120.86 11.43L120.86 11.43ZM112.07 26C110.282 26.0455 108.513 25.6214 106.94 24.77C107.603 23.978 108.199 23.1317 108.72 22.24L114.72 11.87L115.72 11.97C124 13.72 120.69 26 112.07 26ZM115.9 9.79L118.77 4.86C121.37 0.38 124.69 3.01 122.91 6.36C121.54 8.93 119.52 9.72 115.9 9.79Z" id="Shape" fill="#FFFFFF" stroke="none" />
    <path d="M260.21 19L259.97 19.27C258.251 21.4498 256.018 23.168 253.47 24.27C254.05 23.35 254.47 22.35 254.94 21.6L258.87 14.86C262.19 9.22 256.82 7.33 253.19 10.58L253.91 9.35L250.35 9.35L244.79 19L244.55 19.27C243.19 20.838 241.252 21.787 239.18 21.9L242.53 16.12C244.69 12.39 242.7 8.87 239.35 8.87C236.61 8.87 234.49 9.96 232.44 13.52L230.69 16.52L229.23 19L229.04 19.22C226.47 22.22 223.98 24.56 222.4 24.56C221.61 24.56 221.17 24.01 221.99 22.56L227.12 13.56C228.66 10.86 227.19 8.91 225.2 8.91C223.66 8.91 222.02 9.76 220.2 11.61L225.88 1.72L222.32 1.72L212.45 19L212.25 19.23C211.008 20.6992 209.579 22.0002 208 23.1C209.13 19.71 208.89 14.51 211.08 9.96L208.41 8.52C206.94 10.52 203.72 15.19 200.51 18.95L200.27 19.22C197.7 22.22 195.21 24.56 193.63 24.56C192.84 24.56 192.4 24.01 193.22 22.56L196.78 16.33C198.01 14.17 197.43 12.91 196.27 11.51L194.27 9.12C194.01 8.84603 193.873 8.47812 193.89 8.10087C193.907 7.72362 194.077 7.36952 194.36 7.12L194.47 7.03L192.62 5.03C190.62 6.84 190.43 8.86 191.7 10.5L192 10.91C190.43 13.13 188.31 16.14 186 18.91L185.76 19.18C183.19 22.18 179.91 24.52 177.41 24.52C175.22 24.52 173.92 23.15 175.56 20.28L175.9 19.66C178.19 20.66 182.5 20.17 185.17 15.56L185.68 14.67C187.6 11.39 185.75 8.92 182.84 8.92C180.023 8.93444 177.449 10.5202 176.17 13.03L172.7 19L172.49 19.24C171.135 20.8145 169.194 21.7651 167.12 21.87L170.47 16.09C171.254 14.8612 171.715 13.4544 171.81 12C171.859 11.2056 171.591 10.4242 171.064 9.82784C170.537 9.23143 169.794 8.86888 169 8.82L168.59 8.82C167.751 8.84114 166.939 9.11664 166.26 9.61L170.78 1.78L167.15 1.78L157.18 19L156.99 19.21C154.42 22.21 151.93 24.55 150.35 24.55C149.56 24.55 149.12 24 149.94 22.55L153.5 16.32C154.73 14.16 154.15 12.9 152.99 11.5L150.99 9.11C150.731 8.83472 150.596 8.46601 150.615 8.08873C150.634 7.71146 150.805 7.35811 151.09 7.11L151.2 7.02L149.35 5.02C147.35 6.83 147.16 8.85 148.43 10.49L148.74 10.9C147.17 13.12 145.04 16.13 142.74 18.9L142.5 19.17C139.93 22.17 137.44 24.51 135.86 24.51C135.07 24.51 134.63 23.96 135.45 22.51L141.2 12.45L139.2 12.45C139.067 10.4814 137.413 8.96352 135.44 9C133.52 9 130.86 10.51 129.35 13.11L124.35 21.73C122.84 24.37 123.91 26.79 126.78 26.79C128.22 26.79 130 25.87 131.71 24.46C131.88 25.83 132.98 26.79 134.79 26.79C137.73 26.79 141.12 23.64 144.06 20.22C145.77 18.22 147.06 16.46 149.94 12.59L150.42 13.17C150.904 13.7259 150.988 14.5257 150.63 15.17L146.87 21.7C145.37 24.34 146.43 26.76 149.3 26.76C151.36 26.76 153.64 25.21 155.84 23.11C155.84 25.54 157.65 26.91 159.95 26.91C162.349 26.7833 164.558 25.568 165.95 23.61C166.213 23.6274 166.477 23.6274 166.74 23.61C168.402 23.5263 170.021 23.0463 171.46 22.21C171.27 24.78 173.14 26.73 176.28 26.73C180.28 26.73 184.28 23.58 187.28 20.16C188.99 18.16 190.28 16.4 193.16 12.53L193.64 13.11C194.124 13.6659 194.208 14.4657 193.85 15.11L190.09 21.64C188.58 24.28 189.65 26.7 192.52 26.7C195.39 26.7 198.85 23.55 201.79 20.13C203.79 17.8 205.59 15.31 206.85 13.63C205.45 17.33 206.2 23.96 202.85 23.96C202.087 23.8844 201.435 23.3795 201.17 22.66L199 23.82C199.47 25.57 201.089 26.7614 202.9 26.69C203.234 26.684 203.568 26.6607 203.9 26.62L204 26.62C205.986 26.2841 207.863 25.4746 209.47 24.26L208.25 26.38L211.84 26.38L217.24 16.97C222.72 10.09 225.14 10.97 223.6 13.62L218.98 21.62C217.47 24.25 218.54 26.68 221.41 26.68C223.48 26.68 225.76 25.12 227.96 23.01C227.96 27.55 234.25 28.43 238.11 23.56L238.9 23.56C240.22 23.5067 241.516 23.187 242.71 22.62L236.23 33.86L239.82 33.86L250.46 15.35C254.46 9.94 256.93 11.93 256 13.54L250.63 22.85C250.431 23.3878 249.918 23.7449 249.345 23.7449C248.772 23.7449 248.259 23.3878 248.06 22.85L246.06 23.85C246.53 25.6 248.149 26.7914 249.96 26.72L250.17 26.72C255.34 26.62 258.72 23.54 261.63 20.15C261.341 19.5831 260.825 19.1652 260.21 19L260.21 19ZM179.21 14C181.26 10.48 184.89 11.06 182.77 14.75L182.26 15.64C180.55 18.55 178.26 18.48 176.92 18L179.21 14ZM133.6 19.61C131.44 23 129.32 24.61 127.85 24.61C127.06 24.61 126.62 24.06 127.44 22.61L132.44 13.95C134.36 10.63 138.15 11.49 136.44 14.7L133.6 19.61ZM160.39 24.47C160.012 24.5016 159.638 24.37 159.363 24.1082C159.087 23.8464 158.937 23.4795 158.95 23.1C159.001 22.4416 159.214 21.806 159.57 21.25L160.82 19C161.005 20.4986 161.829 21.8439 163.08 22.69C162.536 23.6931 161.518 24.3492 160.38 24.43L160.39 24.47ZM164.1 21C163.1 20.2385 162.536 19.0358 162.59 17.78C162.59 15.25 165.05 11.11 167.07 11.11C167.461 11.1123 167.831 11.2825 168.088 11.5772C168.344 11.872 168.462 12.2628 168.41 12.65C168.372 13.4039 168.138 14.1347 167.73 14.77L164.1 21ZM237.18 19.22L237 19.22C236.443 19.2226 235.91 19.4464 235.518 19.8421C235.126 20.2378 234.907 20.773 234.91 21.33C234.913 21.7534 235.03 22.1681 235.25 22.53L235.25 22.6C233.57 25.47 229.5 24.93 231.62 21.23L234.32 16.54L236 13.62C238.5 9.38 241.92 11.05 239.76 14.75L237.18 19.22ZM0.996 73.257L6.71 67.544L12.422 73.259L6.708 78.971L0.996 73.257ZM353.019 73.283L358.733 67.57L364.446 73.285L358.731 78.997L353.019 73.283Z" id="Shape" fill="#FFFFFF" stroke="none" />
    <path d="M47.8 73.48L49.88 73.48L49.88 65.16L53.15 65.16L53.15 63.07L47.8 63.07L47.8 73.48L47.8 73.48ZM62.69 75L62.69 62.32C62.6793 60.5871 61.6874 59.01 60.13 58.25C60.4436 58.8702 60.608 59.555 60.61 60.25L60.61 72.93C60.6202 74.2918 60.0091 75.584 58.95 76.44C59.9788 77.3955 60.5775 78.7263 60.61 80.13L60.61 94.23C60.5719 96.7519 58.5222 98.7794 56 98.79L42.49 98.79L42.49 100.87L58.13 100.87C60.6327 100.832 62.6524 98.8127 62.69 96.31L62.69 82.21C62.6509 80.8016 62.0409 79.4696 61 78.52C62.0731 77.6677 62.696 76.3704 62.69 75L62.69 75Z" id="Shape" fill="#636466" stroke="none" />
    <path d="M47.8 91.34L49.88 91.34L49.88 82.95L53.15 82.95L53.15 80.87L47.8 80.87L47.8 91.34ZM80.81 91.34L82.89 91.34L82.89 65.16L86.16 65.16L86.16 63.07L80.81 63.07L80.81 91.34L80.81 91.34Z" id="Shape" fill="#636466" stroke="none" />
    <path d="M93.14 58.25C93.4536 58.8702 93.618 59.555 93.62 60.25L93.62 94.25C93.5824 96.7527 91.5627 98.7724 89.06 98.81L78 98.81C77.3052 98.8065 76.6207 98.6423 76 98.33C76.76 99.8874 78.3371 100.879 80.07 100.89L91.15 100.89C93.6527 100.852 95.6724 98.8327 95.71 96.33L95.71 62.33C95.6989 60.5919 94.7028 59.0106 93.14 58.25L93.14 58.25ZM113.82 73.48L115.9 73.48L115.9 65.16L119.18 65.16L119.18 63.07L113.82 63.07L113.82 73.48L113.82 73.48ZM126.07 82.52C127.651 81.7872 128.662 80.2025 128.66 78.46L128.66 62.32C128.659 60.574 127.661 58.982 126.09 58.22C126.401 58.8413 126.565 59.5254 126.57 60.22L126.57 76.37C126.582 78.1122 125.578 79.7017 124 80.44L127.08 98.79L121.4 98.79L121.75 100.87L129.14 100.87L126.07 82.52ZM116.65 80.87L113.82 80.87L113.82 98.79L108.51 98.79L108.51 100.88L115.9 100.88L115.9 82.95L117 82.95L116.65 80.87ZM145.84 91.34L147.93 91.34L147.93 65.16L151.2 65.16L151.2 63.07L145.84 63.07L145.84 91.34L145.84 91.34Z" id="Shape" fill="#636466" stroke="none" />
    <path d="M158.18 58.25C158.494 58.87 158.658 59.555 158.66 60.25L158.66 94.25C158.622 96.7527 156.603 98.7724 154.1 98.81L143 98.81C142.305 98.8069 141.621 98.6426 141 98.33C141.76 99.8874 143.337 100.879 145.07 100.89L156.16 100.89C158.663 100.852 160.682 98.8327 160.72 96.33L160.72 62.33C160.715 60.5987 159.731 59.0191 158.18 58.25L158.18 58.25ZM178.85 91.34L180.94 91.34L180.94 65.16L184.21 65.16L184.21 63.07L178.85 63.07L178.85 91.34L178.85 91.34Z" id="Shape" fill="#636466" stroke="none" />
    <path d="M191.19 58.25C191.504 58.8702 191.668 59.555 191.67 60.25L191.67 94.25C191.632 96.7527 189.613 98.7724 187.11 98.81L173.55 98.81L173.55 100.89L189.19 100.89C191.693 100.852 193.712 98.8327 193.75 96.33L193.75 62.33C193.741 60.5942 192.749 59.0134 191.19 58.25L191.19 58.25ZM212.24 57.77L212.24 98.79L206.93 98.79L206.93 100.88L214.32 100.88L214.32 57.77L212.24 57.77L212.24 57.77ZM245.12 57.77L245.12 98.79L239.22 98.79L239.81 100.88L247.21 100.88L247.21 57.77L245.12 57.77ZM232.31 79.95L232.31 98.79L227.01 98.79L227.01 100.88L234.4 100.88L234.4 87.19L232.31 79.95L232.31 79.95ZM264.58 83L270.69 83L270.69 80.87L262.5 80.87C261.805 80.8662 261.121 80.7019 260.5 80.39C261.242 81.975 262.83 82.9911 264.58 83L264.58 83ZM267.41 85.73L265.32 86.21L265.32 91.34L267.41 91.34L267.41 85.73ZM277.66 58.25C277.974 58.8702 278.138 59.555 278.14 60.25L278.14 69L272.77 70.24L272.77 72.8L280.22 71.07L280.22 62.32C280.209 60.5871 279.217 59.01 277.66 58.25L277.66 58.25Z" id="Shape" fill="#636466" stroke="none" />
    <path d="M277.66 76.05C277.974 76.6702 278.138 77.355 278.14 78.05L278.14 94.25C278.102 96.7527 276.083 98.7724 273.58 98.81L262.49 98.81C261.795 98.8065 261.111 98.6423 260.49 98.33C261.25 99.8874 262.827 100.879 264.56 100.89L275.64 100.89C278.143 100.852 280.162 98.8327 280.2 96.33L280.2 80.12C280.193 78.3916 279.21 76.8156 277.66 76.05ZM265.32 63.07L265.32 73.48L267.41 73.48L267.41 65.16L270.68 65.16L270.68 63.07L265.32 63.07L265.32 63.07ZM299.01 80.87L298.33 80.87L298.33 98.79L293.03 98.79L293.03 100.88L300.42 100.88L300.42 85.35L299.01 80.87L299.01 80.87ZM314.15 57.77L311.4 57.77L305.17 77.18L312.07 98.79L306.06 98.79L306.64 100.63L306.7 100.88L314.15 100.88L307.25 79.26L314.15 57.77L314.15 57.77ZM331.53 57.77L331.53 98.79L326.23 98.79L326.23 100.88L333.61 100.88L333.61 57.77L331.53 57.77L331.53 57.77Z" id="Shape" fill="#636466" stroke="none" />
    <path d="M168.9 123.85L170.31 123.85C175.74 124.13 180 125.58 182.7 128.57C185.44 125.57 189.7 124.11 195.16 123.85L196.51 123.85C208.62 124.67 214.14 133.35 223.81 137.04C225.313 137.725 226.949 138.066 228.6 138.04C231.08 137.77 232.66 135.26 232.34 132.46C232 129.46 229.06 126.85 225.78 128.29C225.349 128.49 224.953 128.761 224.61 129.09C224.36 129.32 224.08 129.92 223.44 129.7C222.84 129.2 223.44 128.47 223.75 128.05C224.962 125.895 227.372 124.704 229.82 125.05C235.45 125.45 240.49 130.39 239.63 137.87C237.71 149 227.53 152 215.46 153L211.53 153C200.996 152.573 190.892 148.709 182.76 142C174.564 148.686 164.427 152.544 153.86 153L150 153C137.84 151.93 127.56 149 125.77 137.54C125.09 129.38 129.95 125.37 135.59 124.96C138.057 124.615 140.486 125.802 141.73 127.96C142.01 128.42 142.53 129.13 142.04 129.68C141.43 129.79 141.13 129.31 140.87 129.07C140.132 128.3 139.116 127.858 138.05 127.84C134.19 127.7 131.97 131.99 133.51 135.45C134.122 136.816 135.397 137.769 136.88 137.97C138.529 137.978 140.162 137.638 141.67 136.97C143.015 136.455 144.31 135.819 145.54 135.07C152.89 130.81 158.64 124.76 168.9 123.85L168.9 123.85Z" id="Shape" fill="#FFFFFF" fill-rule="evenodd" stroke="none" />
    <path d="M362.634 82.906L368.347 77.192L370.433 79.277L364.72 84.992L362.634 82.906ZM10.667 82.95L16.38 77.236L18.466 79.322L12.753 85.035L10.667 82.95Z" id="Shape" fill="#636466" stroke="none" />
    <path d="M56.65 69C56.6536 70.3496 56.0471 71.6286 55 72.48C56.0288 73.4355 56.6275 74.7663 56.66 76.17L56.66 90.27C56.6224 92.7727 54.6027 94.7924 52.1 94.83L36.45 94.83L36.45 51.72L52.09 51.72C54.6016 51.7364 56.6336 53.7684 56.65 56.28L56.65 69ZM49.2 59.11L43.84 59.11L43.84 69.52L49.2 69.52L49.2 59.11ZM49.2 76.91L43.84 76.91L43.84 87.38L49.2 87.38L49.2 76.91ZM85.1 51.72C87.6116 51.7364 89.6436 53.7684 89.66 56.28L89.66 90.28C89.6224 92.7827 87.6027 94.8024 85.1 94.84L74 94.84C71.4884 94.8236 69.4564 92.7916 69.44 90.28L69.44 56.28C69.4373 55.0698 69.9169 53.9084 70.7727 53.0527C71.6284 52.1969 72.7898 51.7173 74 51.72L85.1 51.72ZM82.2 59.11L76.85 59.11L76.85 87.38L82.21 87.38L82.2 59.11ZM115.71 94.83L112.71 76.91L109.88 76.91L109.88 94.83L102.49 94.83L102.49 51.72L118.13 51.72C119.331 51.7279 120.481 52.2128 121.324 53.068C122.168 53.9232 122.638 55.0786 122.63 56.28L122.63 72.42C122.625 74.1718 121.596 75.7589 120 76.48L123.08 94.83L115.71 94.83ZM115.22 59.11L109.86 59.11L109.86 69.52L115.22 69.52L115.22 59.11ZM150.14 51.72C152.652 51.7364 154.684 53.7684 154.7 56.28L154.7 90.28C154.662 92.7827 152.643 94.8024 150.14 94.84L139.06 94.84C136.548 94.8236 134.516 92.7916 134.5 90.28L134.5 56.28C134.494 53.7826 136.503 51.7474 139 51.72L150.1 51.72L150.14 51.72ZM147.24 59.11L141.88 59.11L141.88 87.38L147.24 87.38L147.24 59.11ZM183.15 51.72C185.662 51.7364 187.694 53.7684 187.71 56.28L187.71 90.28C187.672 92.7827 185.653 94.8024 183.15 94.84L167.51 94.84L167.51 51.72L183.15 51.72ZM180.26 59.11L174.9 59.11L174.9 87.38L180.26 87.38L180.26 59.11ZM200.89 51.72L208.28 51.72L208.28 94.83L200.89 94.83L200.89 51.72ZM241.17 51.72L241.17 94.83L233.78 94.83L228.36 76L228.36 94.83L221 94.83L221 51.72L228.33 51.72L233.75 69.39L233.75 51.72L241.17 51.72ZM269.62 69.52C272.132 69.5364 274.164 71.5684 274.18 74.08L274.18 90.28C274.142 92.7827 272.123 94.8024 269.62 94.84L258.54 94.84C256.036 94.8128 254.016 92.7839 254 90.28L254 81.41L261.39 79.69L261.39 87.39L266.75 87.39L266.75 76.91L258.56 76.91C257.353 76.9127 256.195 76.4358 255.34 75.5844C254.485 74.733 254.003 73.5767 254 72.37L254 56.28C253.997 55.0733 254.474 53.9149 255.326 53.0597C256.177 52.2046 257.333 51.7226 258.54 51.72L269.64 51.72C272.152 51.7364 274.184 53.7684 274.2 56.28L274.2 65L266.75 66.73L266.75 59.11L261.39 59.11L261.39 69.52L269.62 69.52ZM301.22 73.22L308.12 94.84L300.67 94.84L300.61 94.59L295.07 76.92L294.39 76.92L294.39 94.83L287 94.83L287 51.72L294.39 51.72L294.39 69.52L295 69.52L300.67 51.72L308.18 51.72L301.22 73.22ZM320.19 51.72L327.58 51.72L327.58 94.83L320.19 94.83L320.19 51.72Z" id="Shape" fill="#FFFFFF" stroke="none" />
  </g>
</svg>