<svg width="13" height="13" viewBox="0 0 13 13" fill="none" xmlns="http://www.w3.org/2000/svg">
<path d="M12.31 10.5C12.1627 10.0029 11.8573 9.56755 11.44 9.26C10.594 8.76052 9.68627 8.37391 8.73996 8.11C8.51462 8.03824 8.2969 7.94446 8.08996 7.83C7.92659 7.70332 7.82188 7.51556 7.79996 7.31C7.79377 7.20676 7.79377 7.10324 7.79996 7C8.49832 5.91439 8.86975 4.65084 8.86996 3.36C8.97457 2.69082 8.75622 2.01162 8.28125 1.52877C7.80628 1.04592 7.13076 0.816418 6.45996 0.91C5.78123 0.798498 5.09028 1.02003 4.60292 1.50541C4.11557 1.99078 3.89122 2.68082 3.99996 3.36C4.02445 4.69892 4.45321 5.99914 5.22996 7.09V7.3C5.20918 7.50592 5.10423 7.69411 4.93996 7.82C4.7331 7.93463 4.51536 8.02843 4.28996 8.1C3.34444 8.35705 2.4367 8.73695 1.58996 9.23C1.17156 9.54936 0.86662 9.99449 0.719956 10.5C0.561385 11.0215 0.487116 11.565 0.499956 12.11H12.53C12.5428 11.565 12.4685 11.0215 12.31 10.5Z" fill="black"/>
</svg>
